<svg width="36" height="56" viewBox="0 0 36 56" fill="none" xmlns="http://www.w3.org/2000/svg">
<path fill-rule="evenodd" clip-rule="evenodd" d="M18 56C17.4696 56 16.961 55.7893 16.586 55.4142C16.211 55.0392 16.0003 54.5305 16.0003 54.0001L16.0003 6.83114L3.41805 19.4183C3.04256 19.7939 2.53327 20.0048 2.00225 20.0048C1.47122 20.0048 0.96194 19.7939 0.586444 19.4183C0.210952 19.0428 3.27543e-06 18.5335 3.32185e-06 18.0024C3.36828e-06 17.4714 0.210952 16.962 0.586444 16.5865L16.5842 0.587534C16.77 0.401293 16.9906 0.253535 17.2336 0.152716C17.4765 0.0518935 17.737 -1.59661e-06 18 -1.57361e-06C18.263 -1.55062e-06 18.5235 0.0518936 18.7664 0.152716C19.0094 0.253535 19.2301 0.401293 19.4158 0.587534L35.4136 16.5865C35.7891 16.962 36 17.4714 36 18.0024C36 18.5335 35.7891 19.0428 35.4136 19.4183C35.0381 19.7939 34.5288 20.0048 33.9978 20.0048C33.4667 20.0048 32.9574 19.7939 32.582 19.4183L19.9997 6.83114L19.9997 54.0001C19.9997 54.5305 19.789 55.0392 19.414 55.4142C19.039 55.7893 18.5304 56 18 56Z" fill="#9EA386"/>
</svg>
